<?xml version="1.0" standalone="no"?>
<!DOCTYPE svg PUBLIC "-//W3C//DTD SVG 20010904//EN"
 "http://www.w3.org/TR/2001/REC-SVG-20010904/DTD/svg10.dtd">
<svg version="1.0" xmlns="http://www.w3.org/2000/svg"
 width="260.000000pt" height="260.000000pt" viewBox="0 0 260.000000 260.000000"
 preserveAspectRatio="xMidYMid meet">
<metadata>
Created by potrace 1.14, written by Peter Selinger 2001-2017
</metadata>
<g transform="translate(0.000000,260.000000) scale(0.100000,-0.100000)"
fill="#000000" stroke="none">
<path d="M1083 2386 c-255 -49 -487 -189 -628 -379 -25 -34 -53 -70 -61 -80
-8 -9 -14 -20 -14 -23 0 -3 -14 -26 -31 -51 -32 -47 -38 -64 -68 -193 -10 -41
-22 -84 -26 -95 -12 -26 -9 -236 3 -300 15 -77 42 -178 53 -197 5 -10 9 -25 9
-33 0 -8 4 -15 9 -15 5 0 15 -16 21 -35 6 -19 15 -35 20 -35 4 0 11 -18 15
-40 4 -24 14 -44 26 -50 10 -6 19 -20 19 -30 0 -12 7 -20 18 -20 9 0 53 -35
97 -78 353 -341 859 -387 1274 -114 80 52 219 195 270 277 24 39 51 81 61 95
20 31 70 171 70 198 0 11 6 25 14 31 17 14 26 158 15 256 -19 179 -37 259 -71
317 -18 31 -49 85 -68 119 -123 218 -359 391 -625 460 -104 27 -301 34 -402
15z m307 -1000 c0 -19 -8 -27 -36 -36 -24 -8 -34 -17 -32 -28 4 -19 48 -30 48
-13 0 6 11 11 25 11 20 0 25 -5 25 -25 0 -18 -5 -25 -20 -25 -11 0 -20 -4 -20
-10 0 -5 -7 -10 -15 -10 -8 0 -15 -7 -15 -16 0 -12 8 -14 45 -8 l45 6 0 -31
c0 -24 -4 -31 -20 -31 -11 0 -28 -9 -37 -20 -30 -34 -58 -26 -75 23 -8 23 -23
65 -33 92 -10 28 -19 65 -19 84 -1 30 3 35 34 47 19 7 50 13 68 13 27 1 32 -2
32 -23z m-210 -70 c0 -13 -6 -27 -12 -30 -10 -5 -10 -7 0 -12 6 -3 15 -23 18
-45 6 -35 10 -39 35 -39 24 0 29 -4 29 -24 0 -29 -16 -36 -86 -36 -51 0 -54 1
-54 25 0 18 5 25 19 25 18 0 19 3 10 30 -10 26 -16 30 -50 30 -35 0 -39 3 -39
25 0 20 5 25 25 25 16 0 25 6 25 15 0 8 7 15 15 15 8 0 15 5 15 10 0 6 11 10
25 10 20 0 25 -5 25 -24z m-160 -56 c0 -22 -4 -40 -10 -40 -5 0 -10 -9 -10
-20 0 -11 -7 -20 -15 -20 -8 0 -15 -7 -15 -15 0 -8 -7 -15 -15 -15 -8 0 -15
-9 -15 -20 0 -15 -7 -20 -25 -20 -14 0 -25 5 -25 10 0 6 -7 10 -15 10 -8 0
-15 9 -15 20 0 11 -7 20 -15 20 -8 0 -15 9 -15 20 0 13 -7 20 -20 20 -15 0
-20 7 -20 25 0 20 5 25 25 25 18 0 25 -5 25 -20 0 -13 7 -20 20 -20 13 0 20
-7 20 -20 0 -11 6 -20 14 -20 8 0 17 -6 19 -12 3 -7 6 -3 6 10 1 12 7 22 16
22 8 0 15 7 15 15 0 8 5 15 10 15 6 0 10 16 10 35 0 31 3 35 25 35 23 0 25 -4
25 -40z m-260 5 c0 -20 -5 -25 -25 -25 -14 0 -25 -4 -25 -10 0 -5 -7 -10 -15
-10 -10 0 -15 -10 -15 -30 0 -29 1 -30 50 -30 47 0 50 -2 50 -25 0 -23 -4 -25
-45 -25 -37 0 -45 -3 -45 -19 0 -23 19 -31 71 -31 35 0 39 -3 39 -25 0 -24 -2
-25 -70 -25 l-70 0 0 30 c0 17 -4 30 -10 30 -5 0 -10 9 -10 19 0 11 -5 21 -10
23 -16 5 0 128 16 128 8 0 14 7 14 15 0 9 9 15 25 15 14 0 25 5 25 10 0 6 11
10 25 10 20 0 25 -5 25 -25z"/>
</g>
</svg>
